Coordinates
version=1
nRows=19
nColumns=24
inDegrees=yes

Units are S.I. units (second, meters, Newtons, ...)
Angles are in degrees.

endheader
time	pelvis_tilt	pelvis_list	pelvis_rotation	pelvis_tx	pelvis_ty	pelvis_tz	hip_flexion_r	hip_adduction_r	hip_rotation_r	knee_angle_r	ankle_angle_r	subtalar_angle_r	mtp_angle_r	hip_flexion_l	hip_adduction_l	hip_rotation_l	knee_angle_l	ankle_angle_l	subtalar_angle_l	mtp_angle_l	lumbar_extension	lumbar_bending	lumbar_rotation
      0.99133333	     -4.07800303	     -1.99209571	     -0.23141306	     -0.09504039	      1.01619527	      0.29486121	     -9.48267750	      7.22770989	      0.07757853	     -7.14272077	     11.27589528	     -3.96077866	      2.23947838	     21.99956784	     -1.30897789	     -1.45638360	      4.25778094	      4.58045816	     -5.25078547	      0.15803495	     -0.80443879	      0.20481837	      3.10704639
      0.99550000	     -4.10653685	     -1.93737997	     -0.29954276	     -0.08908005	      1.01561276	      0.29456020	     -9.55332244	      7.13313143	      0.10804089	     -7.65376540	     11.32551770	     -3.99445884	      2.23868130	     21.98008395	     -1.19931663	     -1.15970736	      4.17002680	      4.50845070	     -5.08955859	      0.20583030	     -0.74187096	      0.13928267	      3.12792089
      0.99966667	     -4.20836464	     -1.87505577	     -0.39136668	     -0.08311331	      1.01495445	      0.29424912	     -9.48200635	      7.01467448	      0.06389225	     -8.30060917	     11.48596623	     -3.76080516	      2.25202413	     22.05281471	     -1.08724410	     -0.90191435	      3.97891382	      4.43951148	     -4.95795855	      0.41208407	     -0.57646038	      0.07145468	      3.24106726
      1.00383333	     -4.23966244	     -1.79324659	     -0.46596964	     -0.07713237	      1.01443283	      0.29391341	     -9.47150317	      6.87968114	      0.00513714	     -8.97196653	     11.60453471	     -3.61426493	      2.29146540	     22.05438780	     -0.94988111	     -0.67509253	      3.72156067	      4.31680653	     -4.82275797	      0.73576322	     -0.50396841	     -0.03463847	      3.31626100
      1.00800000	     -4.23245457	     -1.68759880	     -0.52843038	     -0.07111734	      1.01398601	      0.29353011	     -9.47609316	      6.71326965	     -0.11122811	     -9.69429486	     11.70534428	     -3.39734128	      2.66226203	     22.01572095	     -0.78173840	     -0.46699194	      3.40425909	      4.16853791	     -4.71182546	      2.77710000	     -0.50427502	     -0.14800548	      3.39556534
      1.01216667	     -4.28285505	     -1.60159239	     -0.60159513	     -0.06510974	      1.01348755	      0.29320794	     -9.42553191	      6.59157193	      0.00329263	    -10.39519962	     11.65510075	     -3.57741261	      2.68932446	     22.04397245	     -0.64277227	     -0.24657574	      3.02835275	      3.93977311	     -4.63607505	      2.85450825	     -0.41473039	     -0.23963510	      3.41086856
      1.01633333	     -4.29808203	     -1.50121606	     -0.66700085	     -0.05907802	      1.01306711	      0.29284569	     -9.37060207	      6.44626246	      0.01600456	    -11.17939925	     11.62626055	     -3.61320225	      2.74922917	     22.03461906	     -0.48358896	     -0.03324680	      2.60181252	      3.71769199	     -4.60510516	      2.98237438	     -0.36444696	     -0.35801912	      3.48109438
      1.02050000	     -4.25212814	     -1.39552432	     -0.71836673	     -0.05304116	      1.01276651	      0.29245542	     -9.36383602	      6.29839648	      0.02519547	    -11.99058429	     11.53760592	     -3.71779125	      2.77178337	     21.97050404	     -0.31466611	      0.13924670	      2.11503455	      3.50251930	     -4.56824904	      3.02392861	     -0.40766722	     -0.46680474	      3.50512904
      1.02466667	     -4.26932201	     -1.28322496	     -0.78540415	     -0.04697195	      1.01239574	      0.29207088	     -9.23536703	      6.13221929	     -0.02865864	    -12.91389807	     11.48182981	     -3.65255361	      4.44213529	     21.95537208	     -0.14448181	      0.36491271	      1.63821905	      3.10889075	     -4.73328667	      5.68426664	     -0.33773424	     -0.61614785	      3.55414943
      1.02883333	     -4.23836203	     -1.16016975	     -0.83205914	     -0.04088386	      1.01212899	      0.29166095	     -9.15171513	      5.96413928	     -0.05706129	    -13.84032626	     11.32794127	     -3.74832956	      4.46298135	     21.90891566	      0.04159037	      0.48512529	      1.08722411	      2.80574046	     -4.71085228	      5.69550858	     -0.33088673	     -0.77390180	      3.61699423
      1.03300000	     -4.21453374	     -1.01897444	     -0.89124954	     -0.03478002	      1.01189788	      0.29125096	     -9.02000708	      5.76990283	     -0.10424339	    -14.84495751	     11.17342185	     -3.77364754	      4.52421207	     21.85691874	      0.24174175	      0.63023804	      0.53439708	      2.46809074	     -4.78232956	      5.73206970	     -0.32454002	     -0.94277904	      3.69639553
      1.03716667	     -4.18575823	     -0.89500879	     -0.93893121	     -0.02870509	      1.01168634	      0.29079554	     -8.85130523	      5.58796905	     -0.20569039	    -15.92645820	     11.02183881	     -3.73233486	      4.69881209	     21.80678891	      0.43059064	      0.82174897	     -0.04556307	      2.08845758	     -5.01731003	      5.83300515	     -0.32592628	     -1.07140409	      3.79083019
      1.04133333	     -4.14809819	     -0.75639024	     -0.97827022	     -0.02260050	      1.01152752	      0.29032830	     -8.67013018	      5.39131594	     -0.31494227	    -17.03998560	     10.77544802	     -3.75770965	      5.00232325	     21.73947683	      0.63529082	      1.01231005	     -0.62584632	      1.67801737	     -5.26936992	      5.99214712	     -0.33504897	     -1.23346926	      3.83025747
      1.04550000	     -4.05272475	     -0.59624133	     -1.00855966	     -0.01645589	      1.01149645	      0.28986077	     -8.53608555	      5.17164853	     -0.44027996	    -18.16786458	     10.40390047	     -3.87016941	      5.10216244	     21.61659392	      0.85893909	      1.09370139	     -1.23761227	      1.35285148	     -5.33502169	      6.03694788	     -0.40441054	     -1.45140797	      3.83981829
      1.04966667	     -3.98567530	     -0.42234638	     -1.04245830	     -0.01031686	      1.01145917	      0.28936371	     -8.32571734	      4.92492249	     -0.60843567	    -19.37952098	     10.02427311	     -3.88910331	      5.27274571	     21.51525284	      1.09730087	      1.21828390	     -1.83878807	      0.97286494	     -5.51891651	      6.10168810	     -0.44972440	     -1.65320645	      3.87278608
      1.05383333	     -3.93644741	     -0.27831367	     -1.05821052	     -0.00422940	      1.01141402	      0.28882643	     -8.06325754	      4.70894451	     -0.79996968	    -20.62374962	      9.49464650	     -4.03195685	      9.36821481	     21.43497765	      1.31427308	      1.46681197	     -2.44469381	      0.52165466	     -5.99894047	      7.45060519	     -0.48045547	     -1.81520320	      3.86512956
      1.05800000	     -3.84010632	     -0.10084994	     -1.08294622	      0.00189064	      1.01149007	      0.28826502	     -7.80722344	      4.42967569	     -1.08725924	    -21.95670504	      9.05340583	     -3.89249365	      9.44912801	     21.31470585	      1.55607154	      1.52234029	     -3.08561053	      0.19748952	     -6.12966268	      7.44384956	     -0.56430923	     -2.02032481	      3.92045914
      1.06216667	     -3.75856026	      0.08566809	     -1.09574978	      0.00800651	      1.01157563	      0.28768561	     -7.50802241	      4.13735859	     -1.38667152	    -23.32347747	      8.50773124	     -3.85062628	      9.61565400	     21.20314415	      1.81149110	      1.64173158	     -3.71806650	     -0.12590765	     -6.37646715	      7.43521829	     -0.62717473	     -2.24023704	      3.92787607
      1.06633333	     -3.63590489	      0.27682124	     -1.10601386	      0.01412045	      1.01177143	      0.28708584	     -7.23025349	      3.82700968	     -1.70620176	    -24.70906326	      7.83736770	     -3.78770756	     10.29912419	     21.02753910	      2.07721809	      1.83822377	     -4.31994764	     -0.41579346	     -6.76975045	      7.39917012	     -0.75252839	     -2.47708881	      3.92035174
